<svg width="117" height="117" viewBox="0 0 117 117" fill="none" xmlns="http://www.w3.org/2000/svg">
<path d="M58.5 0L61.5084 48.8889C61.5595 49.7202 62.5449 50.1283 63.1688 49.5767L99.8657 17.1343L67.4233 53.8312C66.8717 54.4551 67.2798 55.4405 68.1111 55.4916L117 58.5L68.1111 61.5084C67.2798 61.5595 66.8717 62.5449 67.4233 63.1688L99.8657 99.8657L63.1688 67.4233C62.5449 66.8717 61.5595 67.2798 61.5084 68.1111L58.5 117L55.4916 68.1111C55.4405 67.2798 54.4551 66.8717 53.8312 67.4233L17.1343 99.8657L49.5767 63.1688C50.1283 62.5449 49.7202 61.5595 48.8889 61.5084L0 58.5L48.8889 55.4916C49.7202 55.4405 50.1283 54.4551 49.5767 53.8312L17.1343 17.1343L53.8312 49.5767C54.4551 50.1283 55.4405 49.7202 55.4916 48.8889L58.5 0Z" fill="#CCD9FC"/>
</svg>
