<svg width="120" height="120" viewBox="0 0 120 120" fill="none" xmlns="http://www.w3.org/2000/svg">
<circle cx="60" cy="60" r="60" fill="#E7E8ED"/>
<g clip-path="url(#clip0_372_3142)">
<mask id="mask0_372_3142" style="mask-type:luminance" maskUnits="userSpaceOnUse" x="39" y="39" width="42" height="42">
<path d="M80.2244 56.1818H60.6563V64.2955H71.9199C70.8699 69.45 66.479 72.4091 60.6563 72.4091C53.7835 72.4091 48.2472 66.8727 48.2472 60C48.2472 53.1273 53.7835 47.5909 60.6563 47.5909C63.6154 47.5909 66.2881 48.6409 68.3881 50.3591L74.4972 44.25C70.7744 41.0045 66.0017 39 60.6563 39C49.0108 39 39.6562 48.3545 39.6562 60C39.6562 71.6455 49.0108 81 60.6563 81C71.1563 81 80.7017 73.3636 80.7017 60C80.7017 58.7591 80.5108 57.4227 80.2244 56.1818Z" fill="white"/>
</mask>
<g mask="url(#mask0_372_3142)">
<path d="M37.7471 72.409V47.5908L53.9743 59.9999L37.7471 72.409Z" fill="#FBBC05"/>
</g>
<mask id="mask1_372_3142" style="mask-type:luminance" maskUnits="userSpaceOnUse" x="39" y="39" width="42" height="42">
<path d="M80.2244 56.1818H60.6563V64.2955H71.9199C70.8699 69.45 66.479 72.4091 60.6563 72.4091C53.7835 72.4091 48.2472 66.8727 48.2472 60C48.2472 53.1273 53.7835 47.5909 60.6563 47.5909C63.6154 47.5909 66.2881 48.6409 68.3881 50.3591L74.4972 44.25C70.7744 41.0045 66.0017 39 60.6563 39C49.0108 39 39.6562 48.3545 39.6562 60C39.6562 71.6455 49.0108 81 60.6563 81C71.1563 81 80.7017 73.3636 80.7017 60C80.7017 58.7591 80.5108 57.4227 80.2244 56.1818Z" fill="white"/>
</mask>
<g mask="url(#mask1_372_3142)">
<path d="M37.7471 47.5908L53.9743 59.9999L60.6562 54.1772L83.5653 50.4545V37.0908H37.7471V47.5908Z" fill="#EA4335"/>
</g>
<mask id="mask2_372_3142" style="mask-type:luminance" maskUnits="userSpaceOnUse" x="39" y="39" width="42" height="42">
<path d="M80.2244 56.1818H60.6563V64.2955H71.9199C70.8699 69.45 66.479 72.4091 60.6563 72.4091C53.7835 72.4091 48.2472 66.8727 48.2472 60C48.2472 53.1273 53.7835 47.5909 60.6563 47.5909C63.6154 47.5909 66.2881 48.6409 68.3881 50.3591L74.4972 44.25C70.7744 41.0045 66.0017 39 60.6563 39C49.0108 39 39.6562 48.3545 39.6562 60C39.6562 71.6455 49.0108 81 60.6563 81C71.1563 81 80.7017 73.3636 80.7017 60C80.7017 58.7591 80.5108 57.4227 80.2244 56.1818Z" fill="white"/>
</mask>
<g mask="url(#mask2_372_3142)">
<path d="M37.7471 72.409L66.3834 50.4545L73.9244 51.409L83.5653 37.0908V82.909H37.7471V72.409Z" fill="#34A853"/>
</g>
<mask id="mask3_372_3142" style="mask-type:luminance" maskUnits="userSpaceOnUse" x="39" y="39" width="42" height="42">
<path d="M80.2244 56.1818H60.6563V64.2955H71.9199C70.8699 69.45 66.479 72.4091 60.6563 72.4091C53.7835 72.4091 48.2472 66.8727 48.2472 60C48.2472 53.1273 53.7835 47.5909 60.6563 47.5909C63.6154 47.5909 66.2881 48.6409 68.3881 50.3591L74.4972 44.25C70.7744 41.0045 66.0017 39 60.6563 39C49.0108 39 39.6562 48.3545 39.6562 60C39.6562 71.6455 49.0108 81 60.6563 81C71.1563 81 80.7017 73.3636 80.7017 60C80.7017 58.7591 80.5108 57.4227 80.2244 56.1818Z" fill="white"/>
</mask>
<g mask="url(#mask3_372_3142)">
<path d="M83.5654 82.909L53.9744 59.9999L50.1562 57.1363L83.5654 47.5908V82.909Z" fill="#4285F4"/>
</g>
</g>
<defs>
<clipPath id="clip0_372_3142">
<rect width="42" height="42" fill="white" transform="translate(39 39)"/>
</clipPath>
</defs>
</svg>
