<svg width="61" height="61" viewBox="0 0 61 61" fill="none" xmlns="http://www.w3.org/2000/svg">
<path d="M29.6145 1.8403C29.989 1.12642 31.011 1.12642 31.3855 1.8403L32.7007 4.347C33.6134 6.08673 35.9242 6.49418 37.3769 5.17155L39.4701 3.26582C40.0662 2.72309 41.0265 3.07263 41.1343 3.87156L41.5128 6.67689C41.7755 8.62388 43.8075 9.79709 45.625 9.05109L48.2437 7.97619C48.9895 7.67007 49.7724 8.32699 49.6004 9.1146L48.9966 11.8802C48.5775 13.7996 50.0858 15.5971 52.0488 15.5177L54.8773 15.4033C55.6828 15.3707 56.1938 16.2557 55.7628 16.937L54.2495 19.3293C53.1992 20.9896 54.0017 23.1946 55.8735 23.7914L58.5705 24.6512C59.3386 24.8961 59.5161 25.9026 58.8781 26.3954L56.6378 28.1258C55.083 29.3268 55.083 31.6732 56.6378 32.8742L58.8781 34.6046C59.5161 35.0974 59.3386 36.1039 58.5705 36.3488L55.8735 37.2086C54.0017 37.8054 53.1992 40.0104 54.2495 41.6707L55.7628 44.063C56.1938 44.7443 55.6828 45.6293 54.8773 45.5967L52.0488 45.4823C50.0858 45.4029 48.5775 47.2004 48.9966 49.1198L49.6004 51.8854C49.7724 52.673 48.9895 53.3299 48.2437 53.0238L45.625 51.9489C43.8075 51.2029 41.7755 52.3761 41.5128 54.3231L41.1343 57.1284C41.0265 57.9274 40.0662 58.2769 39.4701 57.7342L37.3769 55.8284C35.9242 54.5058 33.6134 54.9133 32.7007 56.653L31.3855 59.1597C31.011 59.8736 29.989 59.8736 29.6145 59.1597L28.2993 56.653C27.3866 54.9133 25.0758 54.5058 23.6231 55.8284L21.5299 57.7342C20.9338 58.2769 19.9735 57.9274 19.8657 57.1284L19.4872 54.3231C19.2245 52.3761 17.1925 51.2029 15.375 51.9489L12.7563 53.0238C12.0105 53.3299 11.2276 52.673 11.3995 51.8854L12.0034 49.1198C12.4225 47.2004 10.9142 45.4029 8.95117 45.4823L6.12274 45.5967C5.31723 45.6293 4.80624 44.7443 5.23721 44.063L6.75051 41.6707C7.80079 40.0104 6.99825 37.8054 5.12646 37.2086L2.42947 36.3488C1.6614 36.1039 1.48394 35.0974 2.12194 34.6046L4.36219 32.8742L3.75089 32.0828L4.36219 32.8742C5.91699 31.6732 5.91699 29.3268 4.36219 28.1258L2.12194 26.3954C1.48394 25.9026 1.6614 24.8961 2.42948 24.6512L5.12647 23.7914C6.99826 23.1946 7.80079 20.9896 6.75051 19.3293L5.23721 16.937C4.80624 16.2557 5.31723 15.3707 6.12274 15.4033L8.95117 15.5177C10.9142 15.5971 12.4225 13.7996 12.0034 11.8802L11.3995 9.1146C11.2276 8.32699 12.0105 7.67007 12.7563 7.97619L15.375 9.05109C17.1925 9.7971 19.2245 8.62387 19.4872 6.67689L19.8657 3.87156C19.9735 3.07263 20.9338 2.72309 21.5299 3.26583L23.6231 5.17155C25.0758 6.49419 27.3866 6.08673 28.2993 4.347L29.6145 1.8403Z" stroke="#DC8047" stroke-width="2"/>
</svg>
